<svg width="43" height="20" viewBox="0 0 43 20" fill="none" xmlns="http://www.w3.org/2000/svg">
<path opacity="0.5" d="M32.3776 19.6083C32.8794 20.1306 33.6885 20.1306 34.1903 19.6083L42.7005 10.7514C43.0998 10.3357 43.0998 9.66427 42.7005 9.2486L34.1903 0.391687C33.6885 -0.130562 32.8794 -0.130562 32.3776 0.391687C31.8758 0.913936 31.8758 1.75593 32.3776 2.27818L39.792 10.0053L32.3674 17.7325C31.8758 18.2441 31.8758 19.0967 32.3776 19.6083Z" fill="#2F8DEE"/>
<path opacity="0.75" d="M17.3776 19.6083C17.8794 20.1306 18.6885 20.1306 19.1903 19.6083L27.7005 10.7514C28.0998 10.3357 28.0998 9.66427 27.7005 9.2486L19.1903 0.391687C18.6885 -0.130562 17.8794 -0.130562 17.3776 0.391687C16.8758 0.913936 16.8758 1.75593 17.3776 2.27818L24.792 10.0053L17.3674 17.7325C16.8758 18.2441 16.8758 19.0967 17.3776 19.6083Z" fill="#2F8DEE"/>
<path d="M0.377643 19.6083C0.879446 20.1306 1.68848 20.1306 2.19028 19.6083L10.7005 10.7514C11.0998 10.3357 11.0998 9.66427 10.7005 9.2486L2.19028 0.391687C1.68848 -0.130562 0.879446 -0.130562 0.377643 0.391687C-0.124161 0.913936 -0.124161 1.75593 0.377643 2.27818L7.79204 10.0053L0.367402 17.7325C-0.124161 18.2441 -0.124161 19.0967 0.377643 19.6083Z" fill="#2F8DEE"/>
</svg>
