<svg width="130" height="80" viewBox="0 0 130 80" fill="none" xmlns="http://www.w3.org/2000/svg">
<path opacity="0.8" fill-rule="evenodd" clip-rule="evenodd" d="M26.0737 15.2281C27.3997 11.0361 28.6337 8.42605 29.7737 7.39705C32.9307 4.54905 37.2957 6.09905 38.2237 6.32105C41.4837 7.10305 40.4237 1.95705 43.2207 0.911054C45.0847 0.214054 46.6177 1.06605 47.8207 3.46705C48.8857 1.22705 50.5087 0.201054 52.6897 0.384054C55.9617 0.661054 57.1067 11.7121 61.6027 9.29305C66.0997 6.87305 71.6127 6.32005 73.9677 9.91605C74.4767 10.6941 74.6717 9.48705 78.1337 5.36605C81.5957 1.24405 85.0477 -0.571946 92.1297 1.82805C95.3497 2.91805 97.9977 5.87305 100.077 10.6921C100.077 17.5701 105.137 21.6421 115.255 22.9051C130.434 24.8001 118.652 41.1191 100.077 45.8981C81.5007 50.6781 38.7337 53.2581 15.5257 41.1821C0.0536728 33.1331 3.56967 24.4811 26.0727 15.2281H26.0737Z" fill="url(#paint0_linear)"/>
<path d="M64.1335 76.0082C79.5903 76.0082 92.1205 73.1079 92.1205 69.5302C92.1205 65.9525 79.5903 63.0522 64.1335 63.0522C48.6767 63.0522 36.1465 65.9525 36.1465 69.5302C36.1465 73.1079 48.6767 76.0082 64.1335 76.0082Z" fill="url(#paint1_linear)"/>
<path opacity="0.675" fill-rule="evenodd" clip-rule="evenodd" d="M111.384 77.6132C90.3405 82.8912 18.5135 76.8542 10.8685 74.0972C7.14752 72.7542 3.79352 70.2292 0.80752 66.5212C0.47332 66.1066 0.263254 65.6059 0.201597 65.077C0.13994 64.548 0.229209 64.0124 0.459087 63.532C0.688965 63.0517 1.05007 62.6462 1.50067 62.3624C1.95128 62.0786 2.47299 61.9281 3.00552 61.9282H128.52C131.125 68.8662 125.413 74.0942 111.384 77.6132Z" fill="url(#paint2_linear)"/>
<path d="M85.6099 58.1692L76.0389 46.9772C75.8125 46.7102 75.5312 46.4951 75.2142 46.3467C74.8972 46.1983 74.5519 46.12 74.2019 46.1172H53.6219C52.9159 46.1172 52.2449 46.4412 51.7849 46.9772L42.2139 58.1692V64.3132H85.6099V58.1692Z" fill="url(#paint3_linear)"/>
<path d="M63.8949 61.1818H65.9062L65.9233 59.2131C69.6136 58.9318 71.7528 56.9716 71.7614 54.0142C71.7528 51.108 69.5625 49.5653 66.5284 48.8835L66.0256 48.7642L66.0597 44.5028C67.1932 44.767 67.8835 45.4915 67.9858 46.5653H71.5227C71.4801 43.7443 69.375 41.7244 66.0938 41.3665L66.1108 39.3636H64.0994L64.0824 41.3494C60.75 41.6733 58.3977 43.6847 58.4148 46.5909C58.4062 49.1648 60.2216 50.6392 63.1705 51.3466L63.9886 51.5511L63.946 56.0597C62.5568 55.7955 61.6193 54.9432 61.5256 53.5199H57.9545C58.0398 56.9631 60.2983 58.8892 63.9119 59.2045L63.8949 61.1818ZM65.9574 56.0597L65.9915 52.0795C67.3125 52.4972 68.0284 53.0341 68.0369 54.0057C68.0284 55.0369 67.2443 55.804 65.9574 56.0597ZM64.0142 48.2443C62.9489 47.8778 62.1818 47.3239 62.1989 46.3438C62.1989 45.4318 62.8466 44.7244 64.0483 44.4773L64.0142 48.2443Z" fill="white"/>
<path d="M63.8949 61.1818H65.9062L65.9233 59.2131C69.6136 58.9318 71.7528 56.9716 71.7614 54.0142C71.7528 51.108 69.5625 49.5653 66.5284 48.8835L66.0256 48.7642L66.0597 44.5028C67.1932 44.767 67.8835 45.4915 67.9858 46.5653H71.5227C71.4801 43.7443 69.375 41.7244 66.0938 41.3665L66.1108 39.3636H64.0994L64.0824 41.3494C60.75 41.6733 58.3977 43.6847 58.4148 46.5909C58.4062 49.1648 60.2216 50.6392 63.1705 51.3466L63.9886 51.5511L63.946 56.0597C62.5568 55.7955 61.6193 54.9432 61.5256 53.5199H57.9545C58.0398 56.9631 60.2983 58.8892 63.9119 59.2045L63.8949 61.1818ZM65.9574 56.0597L65.9915 52.0795C67.3125 52.4972 68.0284 53.0341 68.0369 54.0057C68.0284 55.0369 67.2443 55.804 65.9574 56.0597ZM64.0142 48.2443C62.9489 47.8778 62.1818 47.3239 62.1989 46.3438C62.1989 45.4318 62.8466 44.7244 64.0483 44.4773L64.0142 48.2443Z" fill="url(#paint4_linear)"/>
<defs>
<linearGradient id="paint0_linear" x1="66.8645" y1="37.3133" x2="66.8645" y2="-8.3702" gradientUnits="userSpaceOnUse">
<stop stop-color="#DEDEDE" stop-opacity="0"/>
<stop offset="1" stop-color="#A9A9A9" stop-opacity="0.3"/>
</linearGradient>
<linearGradient id="paint1_linear" x1="61.2172" y1="76.0082" x2="61.2172" y2="63.0522" gradientUnits="userSpaceOnUse">
<stop stop-color="white" stop-opacity="0"/>
<stop offset="1" stop-color="#96A1C5" stop-opacity="0.373"/>
</linearGradient>
<linearGradient id="paint2_linear" x1="64.657" y1="79.7066" x2="64.657" y2="58.4303" gradientUnits="userSpaceOnUse">
<stop stop-color="white" stop-opacity="0"/>
<stop offset="1" stop-color="#919191" stop-opacity="0.15"/>
</linearGradient>
<linearGradient id="paint3_linear" x1="63.9119" y1="46.1172" x2="63.9119" y2="54.2963" gradientUnits="userSpaceOnUse">
<stop stop-color="#5389F5"/>
<stop offset="1" stop-color="#416FDC"/>
</linearGradient>
<linearGradient id="paint4_linear" x1="65" y1="39" x2="65" y2="61" gradientUnits="userSpaceOnUse">
<stop stop-color="#7CA5F7"/>
<stop offset="1" stop-color="#C4D6FC"/>
</linearGradient>
</defs>
</svg>
