<svg xmlns="http://www.w3.org/2000/svg" xmlns:xlink="http://www.w3.org/1999/xlink" width="31" height="30" viewBox="0 0 31 30">
    <defs>
        <path id="a" d="M0 22.5V0h25v22.5z"/>
    </defs>
    <g fill="none" fill-rule="evenodd">
        <path fill="#333" d="M15.172 13.75h1.655c.234 0 .423.189.423.422v2.085a.67.67 0 0 1-.003.052l-.408 3.321a.42.42 0 0 1-.418.37h-.83a.421.421 0 0 1-.419-.369l-.418-3.321a.375.375 0 0 1-.004-.054v-2.084c0-.233.189-.422.422-.422m1.503 7.134a.888.888 0 0 1 .262.663.921.921 0 0 1-.262.68.921.921 0 0 1-.68.263.905.905 0 0 1-.669-.262.917.917 0 0 1-.264-.68c0-.272.088-.493.264-.664a.912.912 0 0 1 .669-.259c.277 0 .505.086.68.259" opacity=".4"/>
        <g opacity=".4" transform="translate(3.5 3.75)">
            <mask id="b" fill="#fff">
                <use xlink:href="#a"/>
            </mask>
            <path fill="#333" d="M12.5 0c-.457 0-.916.233-1.178.695L.184 20.415C-.34 21.341.315 22.5 1.36 22.5H23.64c1.046 0 1.7-1.159 1.177-2.085L13.678.695A1.343 1.343 0 0 0 12.5 0m0 4.17l8.782 15.55H3.718L12.5 4.17" mask="url(#b)"/>
        </g>
        <path fill="#333" fill-opacity=".2" d="M14.75 14.172c0-.233.189-.422.422-.422h.662l1.68-3.15L16 7.92 7.218 23.47h3.432l4.1-7.689v-1.609z"/>
        <path d="M1 0h30v30H1z"/>
    </g>
</svg>
