<svg xmlns="http://www.w3.org/2000/svg" width="31" height="30" viewBox="0 0 31 30">
    <g fill="none" fill-rule="evenodd">
        <path fill="#333" fill-opacity=".4" d="M16 2.396c-6.961 0-12.604 5.643-12.604 12.603 0 6.962 5.643 12.605 12.604 12.605 6.961 0 12.604-5.643 12.604-12.605C28.604 8.04 22.96 2.396 16 2.396m0 2.5c5.571 0 10.104 4.532 10.104 10.103 0 5.573-4.533 10.105-10.104 10.105-5.571 0-10.104-4.532-10.104-10.105C5.896 9.43 10.43 4.896 16 4.896"/>
        <path fill="#333" fill-opacity=".4" d="M14.663 19.253a.628.628 0 0 1-.442-.182l-3.533-3.534a.625.625 0 0 1 .884-.884l3.091 3.092 6.624-6.624a.623.623 0 0 1 .884 0 .623.623 0 0 1 0 .884l-7.065 7.066a.628.628 0 0 1-.443.182"/>
        <path fill="#333" fill-opacity=".2" d="M15.094 4.941c-5.147.46-9.198 4.793-9.198 10.06 0 4.725 3.266 8.692 7.657 9.79-2.863-2.155-4.72-5.573-4.72-9.433 0-4.515 2.539-8.428 6.261-10.417"/>
        <path d="M1 0h30v30H1z"/>
    </g>
</svg>
