<svg xmlns="http://www.w3.org/2000/svg" xmlns:xlink="http://www.w3.org/1999/xlink" width="24" height="24" viewBox="0 0 24 24">
    <defs>
        <path id="a" d="M2 1h20v22H2z"/>
    </defs>
    <g fill="none" fill-rule="evenodd">
        <mask id="b" fill="#fff">
            <use xlink:href="#a"/>
        </mask>
        <path fill="#333" fill-opacity=".4" d="M12 3.958c-1.118 0-2.206.175-3.237.51l1.144-1.987c.28-.484.093-1.092-.416-1.357-.51-.266-1.146-.088-1.426.396L5.381 6.18a.953.953 0 0 0-.061.838c.11.274.34.488.631.586l4.897 1.655c.115.039.233.058.35.058.432-.001.837-.256.989-.666.195-.521-.091-1.092-.638-1.277l-2.508-.847A8.175 8.175 0 0 1 12 5.957c4.355 0 7.899 3.375 7.899 7.522s-3.544 7.52-7.899 7.52-7.899-3.373-7.899-7.52c0-.552-.47-1-1.051-1-.58 0-1.05.448-1.05 1 0 5.25 4.486 9.52 10 9.52s10-4.27 10-9.52-4.486-9.521-10-9.521" mask="url(#b)"/>
        <path d="M0 0h24v24H0z"/>
    </g>
</svg>
