<svg xmlns="http://www.w3.org/2000/svg" xmlns:xlink="http://www.w3.org/1999/xlink" width="16" height="16" viewBox="0 0 16 16">
    <defs>
        <path id="a" d="M8.867 14.667H3.8A2.47 2.47 0 0 1 1.333 12.2V3.8A2.47 2.47 0 0 1 3.8 1.333h5.067A2.47 2.47 0 0 1 11.333 3.8v1.533a.666.666 0 1 1-1.333 0V3.8c0-.625-.509-1.133-1.133-1.133H3.8c-.625 0-1.133.508-1.133 1.133v8.4c0 .625.508 1.133 1.133 1.133h5.067c.624 0 1.133-.508 1.133-1.133v-1.533a.666.666 0 1 1 1.333 0V12.2a2.47 2.47 0 0 1-2.466 2.467"/>
        <path id="c" d="M15.138 7.529l-1.885-1.886a.667.667 0 0 0-.943.942l.747.748H7.333a.666.666 0 1 0 0 1.334h5.724l-.747.748a.666.666 0 1 0 .943.942l1.885-1.886a.666.666 0 0 0 0-.942"/>
        <path id="e" d="M2.667 3.8v8.4c0 .625.508 1.133 1.133 1.133H6V2.667H3.8c-.625 0-1.133.508-1.133 1.133"/>
    </defs>
    <g fill="none" fill-rule="evenodd">
        <g>
            <mask id="b" fill="#fff">
                <use xlink:href="#a"/>
            </mask>
            <use fill="#333" xlink:href="#a"/>
            <g fill="#4D4D4D" mask="url(#b)">
                <path d="M0 0h16v16H0z"/>
            </g>
        </g>
        <g>
            <mask id="d" fill="#fff">
                <use xlink:href="#c"/>
            </mask>
            <use fill="#333" xlink:href="#c"/>
            <g fill="#CDAD42" mask="url(#d)">
                <path d="M0 0h16v16H0z"/>
            </g>
        </g>
        <g>
            <mask id="f" fill="#fff">
                <use xlink:href="#e"/>
            </mask>
            <use fill="#333" fill-opacity=".3" xlink:href="#e"/>
            <g fill="#DFDFDF" mask="url(#f)">
                <path d="M0 0h16v16H0z"/>
            </g>
        </g>
        <path d="M0 0h16v16H0z"/>
    </g>
</svg>
