<svg xmlns="http://www.w3.org/2000/svg" width="24" height="27" viewBox="0 0 24 27">
    <g fill="none" fill-rule="nonzero">
        <path fill="#B9B9B9" d="M10.914 12.415a.586.586 0 0 0 1.173 0c.001-.686.245-1.352.688-1.877.985-1.166 1.724-2.43 2.192-3.757A.585.585 0 0 0 14.413 6H8.587a.589.589 0 0 0-.554.78c.47 1.328 1.207 2.592 2.192 3.758.444.525.688 1.192.689 1.877zM12.636 15.62A.628.628 0 0 0 12 15a.63.63 0 0 0-.636.62c0 .897-.55 1.783-1.545 2.502-2.13 1.534-3.723 3.2-4.737 4.953a.604.604 0 0 0 .006.617.637.637 0 0 0 .549.308h12.727a.639.639 0 0 0 .55-.308.608.608 0 0 0 .004-.617c-1.013-1.752-2.607-3.419-4.736-4.953-.997-.719-1.545-1.605-1.546-2.502z"/>
        <path fill="#757575" d="M22.768 24.545H22.4c-.423-4.775-3.227-8.441-5.407-11.045 2.18-2.603 4.984-6.27 5.408-11.045h.368a1.229 1.229 0 0 0 0-2.455H1.231C.55 0 0 .55 0 1.227c0 .678.55 1.228 1.23 1.228H1.6C2.022 7.23 4.825 10.897 7.006 13.5c-2.18 2.603-4.984 6.27-5.408 11.045h-.367a1.228 1.228 0 1 0 0 2.455H22.77c.68 0 1.23-.55 1.23-1.228 0-.678-.551-1.227-1.232-1.227zm-18.702 0c.462-4.314 3.275-7.637 5.378-10.12l.112-.132a1.223 1.223 0 0 0 0-1.583l-.112-.132C7.342 10.095 4.528 6.772 4.066 2.457h15.868c-.463 4.315-3.277 7.638-5.379 10.121l-.11.132a1.223 1.223 0 0 0 0 1.583l.111.132c2.102 2.483 4.915 5.806 5.378 10.12H4.066z"/>
    </g>
</svg>
