<svg xmlns="http://www.w3.org/2000/svg" width="31" height="30" viewBox="0 0 31 30">
    <g fill="none" fill-rule="evenodd">
        <path fill="#333" fill-opacity=".4" d="M18.5 20.625a.622.622 0 0 1-.48-.225l-2.5-3a.622.622 0 0 1-.145-.4v-5.75a.625.625 0 0 1 1.25 0v5.524L18.98 19.6a.625.625 0 0 1-.48 1.025M19.75 3.75h-7.5a1.25 1.25 0 1 1 0-2.5h7.5a1.25 1.25 0 1 1 0 2.5"/>
        <path fill="#333" fill-opacity=".4" d="M16.625 24.968V23.75a.625.625 0 0 0-1.25 0v1.218C11.26 24.676 7.93 21.531 7.35 17.5H8.5a.624.624 0 1 0 0-1.25H7.25c0-4.614 3.592-8.396 8.125-8.718v1.217a.624.624 0 1 0 1.25 0V7.532c4.532.322 8.125 4.104 8.125 8.718H23.5a.625.625 0 0 0 0 1.25h1.15c-.58 4.03-3.91 7.176-8.025 7.468M16 5C9.786 5 4.75 10.037 4.75 16.25S9.786 27.5 16 27.5s11.25-5.037 11.25-11.25S22.214 5 16 5"/>
        <path fill="#333" fill-opacity=".2" d="M9.125 16.875c0 .345-.28.625-.625.625H7.35a8.761 8.761 0 0 0 6.5 7.221l.044.012c.361.088.736.133 1.112.177-2.802-1.674-4.257-4.608-4.257-8.614 0-4.034 1.471-7.032 4.311-8.726a8.694 8.694 0 0 0-4.242 1.643c-.003 0-.004.002-.007.003a8.898 8.898 0 0 0-.598.485c-.01.009-.02.016-.03.026a8.71 8.71 0 0 0-.523.508l-.058.058c-.156.168-.303.345-.448.525-.024.03-.052.06-.074.09a8.72 8.72 0 0 0-.374.527c-.03.046-.063.089-.092.134-.109.171-.207.348-.304.526-.033.059-.068.116-.098.175-.088.171-.165.348-.242.525-.03.071-.068.141-.095.214-.07.171-.128.348-.184.526-.027.081-.06.161-.085.244-.051.176-.09.356-.131.536-.02.089-.046.174-.064.264-.036.186-.059.377-.082.569-.012.086-.03.168-.038.256-.026.278-.041.56-.041.846H8.5c.345 0 .625.28.625.625"/>
        <path d="M1 0h30v30H1z"/>
    </g>
</svg>
