<svg width="130" height="80" viewBox="0 0 130 80" fill="none" xmlns="http://www.w3.org/2000/svg">
<path opacity="0.8" fill-rule="evenodd" clip-rule="evenodd" d="M26.0737 15.2281C27.3997 11.0361 28.6337 8.42605 29.7737 7.39705C32.9307 4.54905 37.2957 6.09905 38.2237 6.32105C41.4837 7.10305 40.4237 1.95705 43.2207 0.911054C45.0847 0.214054 46.6177 1.06605 47.8207 3.46705C48.8857 1.22705 50.5087 0.201054 52.6897 0.384054C55.9617 0.661054 57.1067 11.7121 61.6027 9.29305C66.0997 6.87305 71.6127 6.32005 73.9677 9.91605C74.4767 10.6941 74.6717 9.48705 78.1337 5.36605C81.5957 1.24405 85.0477 -0.571946 92.1297 1.82805C95.3497 2.91805 97.9977 5.87305 100.077 10.6921C100.077 17.5701 105.137 21.6421 115.255 22.9051C130.434 24.8001 118.652 41.1191 100.077 45.8981C81.5007 50.6781 38.7337 53.2581 15.5257 41.1821C0.0536728 33.1331 3.56967 24.4811 26.0727 15.2281H26.0737Z" fill="url(#paint0_linear)"/>
<path d="M64.1335 76.0082C79.5903 76.0082 92.1205 73.1079 92.1205 69.5302C92.1205 65.9525 79.5903 63.0522 64.1335 63.0522C48.6767 63.0522 36.1465 65.9525 36.1465 69.5302C36.1465 73.1079 48.6767 76.0082 64.1335 76.0082Z" fill="url(#paint1_linear)"/>
<path opacity="0.675" fill-rule="evenodd" clip-rule="evenodd" d="M111.384 77.6132C90.3405 82.8912 18.5135 76.8542 10.8685 74.0972C7.14752 72.7542 3.79352 70.2292 0.80752 66.5212C0.47332 66.1066 0.263254 65.6059 0.201597 65.077C0.13994 64.548 0.229209 64.0124 0.459087 63.532C0.688965 63.0517 1.05007 62.6462 1.50067 62.3624C1.95128 62.0786 2.47299 61.9281 3.00552 61.9282H128.52C131.125 68.8662 125.413 74.0942 111.384 77.6132Z" fill="url(#paint2_linear)"/>
<path d="M82.8978 58.539L74.5208 48.791C74.3183 48.5608 74.0686 48.377 73.7887 48.2519C73.5089 48.1268 73.2053 48.0634 72.8988 48.066H54.9248C54.3078 48.066 53.7048 48.322 53.3028 48.791L44.9258 58.539V63.893H82.8978V58.539Z" fill="url(#paint3_linear)"/>
<path d="M69.1018 50.419C69.109 48.9142 69.1162 47.4118 69.0946 45.907C69.0826 45.0046 68.5042 44.4046 67.6066 44.3974C65.2018 44.3758 62.7946 44.3758 60.3898 44.3974C59.4922 44.407 58.9138 45.007 58.9018 45.9046C58.8802 47.491 58.8802 49.075 58.8994 50.6614C58.909 51.5974 59.4826 52.1662 60.4306 52.2334C60.697 52.2526 60.9658 52.2358 61.3306 52.2358C61.3306 53.623 61.3186 54.931 61.3354 56.2366C61.3498 57.3862 61.9018 57.9334 63.0562 57.9646C63.6034 57.979 64.1506 57.9718 64.6954 57.9694C66.1522 57.9622 66.6586 57.4558 66.6658 55.9918C66.673 54.7678 66.6682 53.5438 66.6682 52.2958C66.9466 52.2718 67.1338 52.2526 67.321 52.2454C68.5834 52.195 69.0994 51.6718 69.1018 50.419ZM57.9946 51.4918C57.8794 49.3774 57.961 47.251 57.961 45.0142C56.9602 45.0142 55.789 44.971 54.6226 45.031C53.8834 45.0694 53.5258 45.6022 53.5162 46.3174C53.4946 47.6038 53.4946 48.8878 53.5162 50.1718C53.5282 50.9686 53.9626 51.4126 54.769 51.5254C55.0066 51.559 55.2466 51.5758 55.477 51.5998C55.513 51.7222 55.5538 51.799 55.5538 51.8758C55.5634 52.723 55.5706 53.5702 55.5706 54.4174C55.573 55.999 55.9066 56.2774 57.4978 56.3446C59.965 56.4478 60.1954 55.831 60.0034 53.5894C58.9642 53.2678 58.057 52.6318 57.9946 51.4918ZM74.485 46.2838C74.4754 45.679 74.1802 45.1246 73.585 45.0814C72.3778 44.9878 71.1586 45.055 69.9754 45.055C70.0354 45.6142 70.1218 46.0966 70.1314 46.5814C70.153 47.8942 70.141 49.207 70.141 50.5222C70.1386 52.3294 69.7354 52.9246 67.9978 53.635C67.8202 56.0542 68.0842 56.3398 70.4482 56.3326H70.5298C72.1018 56.3278 72.433 55.987 72.4306 54.3886V51.6046C72.8098 51.5638 73.081 51.5542 73.3474 51.5062C74.0626 51.379 74.473 50.9446 74.485 50.2198C74.509 48.9094 74.5018 47.5966 74.485 46.2838ZM64.0114 43.399C65.497 43.3918 66.649 42.2398 66.6634 40.7518C66.673 39.235 65.4802 38.0182 63.9898 38.023C62.4994 38.0278 61.3186 39.2566 61.3402 40.7758C61.3618 42.2614 62.5258 43.4038 64.0114 43.399ZM57.8242 44.1694C59.0482 44.1502 60.0562 43.1182 60.0466 41.8942C60.037 40.6774 58.9954 39.655 57.7834 39.667C56.545 39.6766 55.573 40.6846 55.5826 41.9398C55.5922 43.1854 56.6002 44.191 57.8242 44.1694ZM70.213 44.1718C71.4514 44.1574 72.4282 43.1542 72.421 41.9014C72.4138 40.6486 71.4082 39.6502 70.1794 39.667C68.9578 39.6862 67.9426 40.7182 67.9522 41.9326C67.9642 43.1518 69.0082 44.1862 70.213 44.1718Z" fill="#2F8DEE"/>
<defs>
<linearGradient id="paint0_linear" x1="66.8645" y1="37.3133" x2="66.8645" y2="-8.3702" gradientUnits="userSpaceOnUse">
<stop stop-color="#DEDEDE" stop-opacity="0"/>
<stop offset="1" stop-color="#A9A9A9" stop-opacity="0.3"/>
</linearGradient>
<linearGradient id="paint1_linear" x1="61.2172" y1="76.0082" x2="61.2172" y2="63.0522" gradientUnits="userSpaceOnUse">
<stop stop-color="white" stop-opacity="0"/>
<stop offset="1" stop-color="#96A1C5" stop-opacity="0.373"/>
</linearGradient>
<linearGradient id="paint2_linear" x1="64.657" y1="79.7066" x2="64.657" y2="58.4303" gradientUnits="userSpaceOnUse">
<stop stop-color="white" stop-opacity="0"/>
<stop offset="1" stop-color="#919191" stop-opacity="0.15"/>
</linearGradient>
<linearGradient id="paint3_linear" x1="68.9791" y1="63.893" x2="68.9791" y2="47.2246" gradientUnits="userSpaceOnUse">
<stop stop-color="#DCE9FF"/>
<stop offset="1" stop-color="#B6CFFF"/>
</linearGradient>
</defs>
</svg>
