<svg width="60" height="20" viewBox="0 0 60 20" fill="none" xmlns="http://www.w3.org/2000/svg">
<path d="M5.59446 12.6485L2.07949 6.31192H6.18881L8.04487 10.2473L11.1388 6.31192H15.3474L9.72861 13.2674L13.1443 19.4561H9.13378L7.27723 15.6689L4.28261 19.4561H0L5.59446 12.6485Z" fill="#2F8DEE"/>
<path d="M16.0897 6.75721L18.2676 6.31191L18.5402 4.55438C19.0853 1.16314 20.3972 4.59188e-05 23.3173 4.59188e-05C24.4315 4.59188e-05 25.6694 0.271958 26.3377 0.593664L26.016 2.67291L23.788 2.64818C22.3272 2.62345 22.2041 3.26711 21.8823 5.37108L21.7329 6.31191H24.9018L24.4817 8.96005H21.288L19.5794 19.4561H16.1141L17.8226 8.96005H15.7432L16.0897 6.75721Z" fill="#2F8DEE"/>
<path d="M33.6876 10.322C33.9115 9.10916 33.2432 8.83633 31.8564 8.86105C29.5053 8.88539 29.2818 10.3959 28.9601 12.0294C28.9601 12.0294 33.268 12.7476 33.6876 10.322ZM32.1036 6.06402C34.9255 6.03929 37.4499 6.83088 37.2527 9.85168C36.8565 15.8413 29.6036 14.6786 28.6875 14.3068C28.3409 16.3123 28.8369 16.8319 30.5937 16.8567C32.055 16.9061 34.4309 16.6836 35.9657 16.4355L35.5441 18.9102C33.5649 19.5054 31.4353 19.8024 28.6875 19.6284C25.5444 19.4807 24.529 16.8319 25.4198 12.0294C26.1879 7.99436 27.2778 6.08875 32.1036 6.06402Z" fill="#2F8DEE"/>
<path d="M39.7269 6.31192H42.6471L42.9207 7.96976C43.9838 7.07912 45.3457 6.18833 46.9794 6.18833C47.5489 6.18833 48.0936 6.18833 48.4153 6.33665L47.8955 9.67843C47.5489 9.6535 46.7569 9.60371 46.0141 9.60371C44.5781 9.60371 43.4897 9.85181 42.4246 11.0646L41.1128 19.4561H37.6475L39.7269 6.31192Z" fill="#2F8DEE"/>
<path d="M48.5629 16.7574H54.7522C54.9746 16.7574 55.6186 16.7321 55.7676 15.916L55.8903 15.2475C55.9647 14.7033 55.8411 14.4063 55.1236 14.4063H52.1776C49.8504 14.4063 48.5386 13.119 48.9348 10.5938L49.1334 9.40583C49.4551 7.32625 50.5689 6.13819 53.1186 6.13819C55.643 6.13819 59.084 6.21237 59.9996 6.80657L59.653 8.98468H53.7124C52.8212 8.98468 52.6235 9.43114 52.5495 9.90058L52.4502 10.5444C52.277 11.5098 52.8713 11.3856 53.341 11.3856H56.3615C58.8859 11.3856 59.7275 13.1437 59.4057 15.0499L59.1833 16.5595C58.7622 19.2573 56.9305 19.6284 55.4205 19.6284C52.921 19.6284 49.0341 19.5305 48.2168 18.9102L48.5629 16.7574Z" fill="#2F8DEE"/>
</svg>
