<svg xmlns="http://www.w3.org/2000/svg" width="50" height="48" viewBox="0 0 50 48">
    <g fill="#3B8EF3" fill-rule="nonzero">
        <path d="M45.806 19.941c-1.116 0-2.02.908-2.02 2.028v2.042c-.004 5.328-2.074 10.335-5.83 14.1-3.752 3.762-8.739 5.833-14.043 5.833h-.011C12.944 43.938 4.034 34.986 4.04 23.988a19.85 19.85 0 0 1 5.828-14.1c3.753-3.761 8.74-5.833 14.044-5.833h.012c2.8.002 5.518.583 8.076 1.727a2.017 2.017 0 0 0 2.668-1.027 2.03 2.03 0 0 0-1.023-2.677A23.689 23.689 0 0 0 23.926 0h-.013c-6.382 0-12.384 2.493-16.9 7.02C2.496 11.55.004 17.576 0 23.986c-.004 6.41 2.48 12.44 6.994 16.975C11.508 45.496 17.512 47.996 23.9 48h.014c6.382 0 12.384-2.493 16.9-7.02 4.519-4.53 7.01-10.556 7.013-16.967v-2.044c0-1.12-.904-2.028-2.02-2.028z"/>
        <path d="M49.407 2.779a2.018 2.018 0 0 0-2.865 0L23.828 25.626l-5.153-5.183a2.017 2.017 0 0 0-2.864 0 2.046 2.046 0 0 0 0 2.881l6.585 6.625a2.013 2.013 0 0 0 2.865 0L49.407 5.66a2.046 2.046 0 0 0 0-2.881z"/>
    </g>
</svg>
