<svg xmlns="http://www.w3.org/2000/svg" width="28" height="32" viewBox="0 0 28 32">
    <g fill="none" fill-rule="nonzero">
        <path fill="#E2E5E7" d="M6 0C4.9 0 4 .9 4 2v28c0 1.1.9 2 2 2h20c1.1 0 2-.9 2-2V8l-8-8H6z"/>
        <path fill="#B0B7BD" d="M22 8h6l-8-8v6c0 1.1.9 2 2 2z"/>
        <path fill="#CAD1D8" d="M28 14l-6-6h6z"/>
        <path fill="#50BEE8" d="M24 26c0 .55-.45 1-1 1H1c-.55 0-1-.45-1-1V16c0-.55.45-1 1-1h22c.55 0 1 .45 1 1v10z"/>
        <g fill="#FFF">
            <path d="M3.605 23.872c-.267 0-.558-.148-.558-.506v-4.638c0-.294.291-.506.558-.506h1.85c3.693 0 3.61 5.65.072 5.65H3.605zm.51-4.655v3.659h1.34c2.182 0 2.278-3.659 0-3.659h-1.34zM12.158 23.954c-1.495.065-3.047-.94-3.047-2.94 0-2.01 1.551-2.997 3.047-2.997 1.414.073 2.892 1.061 2.892 2.997s-1.478 2.94-2.892 2.94zm-.089-4.875c-.905 0-1.89.646-1.89 1.936 0 1.283.986 1.936 1.89 1.936.93 0 1.923-.653 1.923-1.936 0-1.291-.993-1.936-1.923-1.936zM16 21.006c0-1.576.98-2.931 2.837-2.931.704 0 1.262.212 1.85.727a.56.56 0 0 1 .025.791.545.545 0 0 1-.744-.024c-.33-.352-.67-.449-1.13-.449-1.244 0-1.842.89-1.842 1.887 0 1.013.59 1.943 1.841 1.943.461 0 .89-.189 1.262-.523.25-.196.597-.099.742.098.13.18.193.482-.089.767-.565.532-1.244.639-1.916.639-1.954 0-2.835-1.35-2.835-2.925z"/>
        </g>
        <path fill="#CAD1D8" d="M23 27H4v1h19c.55 0 1-.45 1-1v-1c0 .55-.45 1-1 1z"/>
    </g>
</svg>
