<svg height="512pt" viewBox="0 -61 512 512" width="512pt" xmlns="http://www.w3.org/2000/svg"><path d="m420.699219 154.199219c-5.699219-86.101563-77.398438-154.199219-164.699219-154.199219-87 0-158.402344 67.5-164.398438 154.199219-52.5 13.199219-91.601562 60.898437-91.601562 115.800781 0 66.300781 54.699219 120 121 120h270c66.300781 0 121-53.699219 121-120 0-54.902344-39.101562-102.601562-91.300781-115.800781zm0 0" fill="#e6ffff"/><path d="m512 270c0 66.300781-54.699219 120-121 120h-135v-390c87.300781 0 159 68.097656 164.699219 154.199219 52.199219 13.199219 91.300781 60.898437 91.300781 115.800781zm0 0" fill="#d9f2ff"/><path d="m256 78-87.898438 132h42.898438v60h90v-60h42.898438zm0 0" fill="#57d9ad"/><path d="m361 270v60h-210v-60h30v30h150v-30zm0 0" fill="#4a696f"/><path d="m301 270h-45v-192l87.898438 132h-42.898438zm0 0" fill="#26bfa6"/><path d="m361 270v60h-105v-30h75v-30zm0 0" fill="#384949"/></svg>